<?xml version="1.0" standalone="no"?>
<!DOCTYPE svg PUBLIC "-//W3C//DTD SVG 20010904//EN"
 "http://www.w3.org/TR/2001/REC-SVG-20010904/DTD/svg10.dtd">
<svg version="1.0" xmlns="http://www.w3.org/2000/svg"
 width="300.000000pt" height="300.000000pt" viewBox="0 0 300.000000 300.000000"
 preserveAspectRatio="xMidYMid meet">
<metadata>
Created by potrace 1.11, written by Peter Selinger 2001-2013
</metadata>
<g transform="translate(0.000000,300.000000) scale(0.100000,-0.100000)"
fill="#000000" stroke="none">
<path d="M0 2670 l0 -330 34 -45 c53 -69 61 -196 16 -272 -19 -33 -17 -43 10
-43 10 0 43 -13 74 -29 31 -15 58 -25 61 -22 2 4 9 62 15 131 9 94 17 134 35
169 30 59 125 142 179 158 58 16 278 15 356 -2 95 -21 103 -20 124 20 27 49
127 142 178 165 51 23 132 26 180 6 50 -21 95 -72 115 -130 22 -64 22 -177 1
-227 l-16 -37 41 -15 c23 -9 52 -18 65 -22 12 -3 39 -26 59 -51 21 -24 42 -44
48 -44 23 0 116 -112 150 -181 33 -68 34 -75 28 -148 -4 -50 -14 -93 -30 -126
-25 -51 -138 -175 -159 -175 -6 0 -25 -13 -42 -30 -40 -37 -139 -88 -190 -96
-38 -6 -40 -8 -45 -50 -2 -25 -13 -54 -23 -65 -17 -19 -28 -20 -97 -17 -67 4
-83 9 -121 36 l-45 31 6 -37 c3 -20 14 -46 24 -58 27 -29 25 -48 -3 -39 -13 4
-34 8 -48 9 -26 3 -30 7 -112 136 -69 107 -80 128 -73 139 8 14 -53 61 -70 55
-8 -4 -12 -10 -9 -16 3 -5 12 -7 19 -4 7 2 20 -1 29 -7 13 -9 -12 -12 -116
-12 -73 0 -155 -4 -181 -8 -28 -4 -46 -3 -42 2 3 5 -1 11 -7 14 -27 9 3 18 88
27 112 12 163 12 146 1 -7 -4 -26 -7 -43 -6 -16 1 -27 -1 -24 -4 4 -3 28 -6
55 -7 46 -2 71 9 55 24 -3 3 -10 0 -15 -8 -6 -9 -10 -10 -10 -3 0 6 4 15 10
18 5 3 10 20 10 37 0 25 -3 29 -17 23 -10 -5 -75 -24 -145 -43 -71 -20 -128
-40 -128 -46 0 -17 -60 -129 -84 -155 -11 -13 -56 -40 -98 -61 -43 -21 -90
-48 -105 -59 -14 -12 -46 -26 -70 -32 l-43 -11 0 -549 0 -549 1030 0 1030 0
-20 51 c-10 28 -25 59 -33 68 -8 9 -15 27 -15 41 0 37 -38 117 -61 130 -43 22
-101 188 -101 287 0 44 -6 61 -35 101 l-34 48 -87 -9 c-69 -7 -89 -6 -96 5 -9
13 -4 108 8 159 5 24 -6 35 -133 136 -76 60 -150 118 -165 127 -15 10 -25 22
-22 27 3 5 16 2 30 -7 26 -18 34 -4 9 16 -35 29 -3 19 47 -14 29 -20 59 -36
66 -36 7 0 43 32 80 71 65 69 189 161 268 196 62 29 94 54 111 87 9 17 31 49
49 72 27 33 34 50 34 85 0 153 48 319 91 319 13 0 46 -70 54 -112 l7 -37 64
72 c72 79 153 149 166 141 18 -11 60 -88 74 -133 33 -110 0 -210 -76 -231 -22
-6 -52 -22 -67 -35 l-28 -24 38 -1 c55 0 177 -67 177 -96 0 -24 18 -24 76 3
76 35 170 39 204 8 103 -93 75 -307 -60 -449 l-51 -54 27 -21 c20 -16 41 -21
85 -21 67 0 79 -12 79 -79 0 -30 4 -41 15 -41 8 0 15 -8 15 -17 0 -30 -47
-121 -93 -181 -24 -31 -46 -73 -50 -92 -14 -88 -153 -243 -259 -289 l-38 -16
85 -39 85 -39 72 37 c39 20 77 36 85 36 8 0 29 11 46 24 41 31 99 59 165 80
l52 18 0 1314 0 1314 -1500 0 -1500 0 0 -330z"/>
<path d="M763 1708 c-32 -37 -34 -44 -9 -56 21 -9 23 -8 24 24 1 19 4 39 7 44
11 18 -1 11 -22 -12z"/>
<path d="M854 1716 c-5 -13 -1 -24 13 -35 11 -9 18 -23 16 -31 -4 -12 -3 -12
5 -1 6 8 18 11 30 7 14 -5 21 -1 25 14 4 14 0 20 -11 21 -37 3 -42 5 -56 24
-14 19 -15 20 -22 1z"/>
<path d="M1017 1685 c6 -37 -16 -75 -44 -75 -7 0 -13 -4 -13 -10 0 -5 -15 -7
-32 -5 -32 5 -32 5 -8 -6 14 -6 39 -18 56 -27 37 -18 79 -10 94 18 8 16 5 33
-17 80 -32 68 -44 77 -36 25z"/>
<path d="M795 1677 c-15 -12 -16 -15 -4 -22 8 -5 10 -4 6 0 -4 5 3 15 15 22
13 7 18 12 12 13 -5 0 -18 -6 -29 -13z"/>
<path d="M776 1621 c-3 -5 -22 -12 -41 -15 -41 -8 -47 -33 -15 -73 11 -14 20
-32 20 -40 0 -8 5 -24 11 -35 16 -30 29 -4 18 35 -5 17 -7 33 -5 35 9 9 36
-59 36 -91 0 -27 5 -36 25 -45 36 -17 68 -16 35 1 -22 11 -25 20 -26 64 -1 29
-4 59 -7 67 -7 19 9 22 17 4 5 -10 7 -10 12 1 5 10 10 6 19 -15 8 -19 9 -35 3
-47 -10 -20 -3 -19 60 4 30 11 28 19 -13 59 -19 19 -35 40 -35 47 0 7 -10 13
-21 13 -12 0 -36 9 -55 20 -18 12 -35 17 -38 11z"/>
<path d="M910 1395 c-14 -8 -20 -14 -14 -15 5 0 19 7 30 15 24 18 16 19 -16 0z"/>
<path d="M1684 1288 c-50 -32 -214 -191 -214 -208 0 -12 150 -133 157 -126 3
3 9 38 13 78 8 74 38 173 65 215 16 24 37 73 31 73 -1 0 -25 -14 -52 -32z"/>
<path d="M1371 1118 c-1 -10 6 -18 14 -18 8 0 15 5 15 11 0 5 -4 8 -9 5 -5 -4
-12 0 -14 6 -3 8 -6 6 -6 -4z"/>
<path d="M1941 901 c-5 -4 -15 -19 -20 -34 -8 -21 -17 -27 -33 -25 -24 3 -48
-31 -47 -67 0 -19 1 -18 11 3 15 30 42 28 57 -5 10 -21 9 -28 -1 -34 -13 -9
-5 -12 23 -10 18 2 33 -55 17 -65 -13 -8 1 -24 23 -24 23 0 24 16 3 65 -8 21
-13 43 -10 51 3 8 -4 19 -15 25 -14 7 -19 18 -17 37 2 22 9 28 36 30 17 2 32
7 32 11 0 3 10 7 21 8 12 1 19 -1 15 -4 -3 -3 -1 -12 5 -20 9 -10 7 -18 -7
-34 -17 -19 -17 -20 1 -13 14 6 16 4 10 -7 -6 -10 -3 -9 11 2 10 9 26 14 34
11 8 -2 2 7 -15 22 -16 14 -30 33 -30 42 0 18 -85 46 -104 35z"/>
<path d="M1970 800 c0 -6 5 -10 10 -10 6 0 10 -6 8 -12 -4 -20 81 -128 109
-139 34 -13 82 -2 111 24 26 24 29 57 6 57 -10 0 -14 6 -10 15 6 16 -18 45
-38 45 -7 0 -23 -11 -36 -25 -13 -14 -30 -25 -37 -25 -21 0 -74 30 -69 38 2 4
-9 15 -25 24 -16 10 -29 13 -29 8z m135 -140 c-3 -5 -12 -10 -18 -10 -7 0 -6
4 3 10 19 12 23 12 15 0z"/>
<path d="M2066 254 c-10 -7 -23 -15 -29 -17 -6 -2 -4 -13 4 -29 l14 -25 63 22
c35 12 58 25 50 28 -7 3 -29 12 -48 20 -30 13 -38 13 -54 1z"/>
<path d="M2955 214 l-40 -25 40 7 c47 8 48 8 43 28 -2 12 -10 10 -43 -10z"/>
<path d="M2185 170 c-49 -17 -95 -33 -102 -38 -9 -6 -8 -22 6 -67 l19 -60 120
-3 120 -3 17 33 c10 18 27 51 37 73 11 22 27 48 35 57 14 16 13 18 -11 28 -51
19 -146 11 -241 -20z"/>
<path d="M2887 80 c11 -5 34 -25 50 -44 15 -20 35 -36 43 -36 9 0 -5 19 -32
45 -26 25 -55 45 -65 44 -15 0 -14 -2 4 -9z"/>
</g>
</svg>
